<svg xmlns="http://www.w3.org/2000/svg" xml:space="preserve" style="fill-rule:evenodd;clip-rule:evenodd;stroke-linejoin:round;stroke-miterlimit:2" viewBox="0 0 1080 1080">
    <path d="M79.539 31.72c.46 5.12 1.678 18.771 3.002 34.599.755 9.034-6.108 15.648-15.302 14.932a4949.44 4949.44 0 0 1-35.997-2.944c-10.755-.919-21.085-10.28-23.069-20.564L.379 17.347C-1.885 5.617 6.243-2.082 18.281.499l40.785 8.743c10.236 2.195 19.555 12.24 20.473 22.478ZM21.783 16.638l8.127 49.103a1912.352 1912.352 0 0 1 37.15-19.438 6225.2 6225.2 0 0 1-45.277-29.665ZM149.26 44.026c-.299 10.496-.64 20.442-.969 28.943-.295 7.598-6.378 13.313-13.547 12.903a2911.743 2911.743 0 0 1-28.295-1.766c-8.485-.571-15.863-8.311-16.481-16.983a5202.715 5202.715 0 0 0-2.538-33.991c-.769-9.871 6.532-16.409 15.888-14.403l31.799 6.817c7.889 1.691 14.388 9.888 14.143 18.48Zm-44.578-11.785a4187.87 4187.87 0 0 1 1.925 41.26 1776.41 1776.41 0 0 1 31.397-17.052 6650.198 6650.198 0 0 1-33.322-24.208ZM203.079 53.138a2718.473 2718.473 0 0 1-3.794 23.964c-1.034 6.338-6.329 11.276-11.796 11.117-5.966-.174-13.705-.444-21.745-.787-6.532-.279-11.539-6.614-11.158-13.893.433-8.267.899-18.015 1.332-28.363.346-8.253 6.744-13.726 13.875-12.197l24.202 5.189c5.916 1.268 10.182 7.825 9.084 14.97Zm-33.527-8.982a2581.164 2581.164 0 0 1-2.601 34.37 1382.591 1382.591 0 0 1 26.127-14.907l-23.526-19.463ZM243.027 59.512l-5.694 19.649c-1.52 5.243-6.1 9.519-10.224 9.551-1.319.01-7.91.06-16.481-.027-4.943-.05-8.142-5.201-7.072-11.298a2824.447 2824.447 0 0 0 4.017-23.511c1.14-6.846 6.697-11.362 12.044-10.216l18.152 3.892c4.354.933 6.966 6.064 5.258 11.96Zm-24.797-6.715a3247.561 3247.561 0 0 1-5.712 28.426c2.365-1.463 11.856-7.326 21.639-12.969L218.23 52.797Z" style="fill:#fff"/>
    <path d="M85.776 107.103a3664.534 3664.534 0 0 1 1.993 28.114c.488 7.292-5.59 13.674-13.553 14.329a2514.26 2514.26 0 0 1-31.008 2.351c-9.296.649-17.992-5.825-19.579-14.051l-6.295-32.626C15.51 95.769 22.606 88.31 33 88.989c13.227.864 25.347 1.597 35.306 2.163 8.873.504 16.847 7.605 17.47 15.951Zm-49.872-5.481 6.388 39.727a1827.581 1827.581 0 0 1 32.451-20.88c-16.666-7.844-31.517-15.197-38.839-18.847ZM146.711 107.34c-.462 8.581-.981 17.1-1.432 23.886-.415 6.234-5.9 11.833-12.229 12.567-6.977.809-15.807 1.771-24.788 2.667-7.444.742-13.67-4.605-14.04-11.6-.409-7.723-.95-17.306-1.585-27.65-.494-8.027 5.959-14.456 14.156-14.088 10.377.466 20.134.84 27.8 1.099 6.917.233 12.499 6.015 12.118 13.119Zm-38.878-3.559a2695.4 2695.4 0 0 1 .877 33.686 2591.086 2591.086 0 0 1 27.925-18.512 1514.478 1514.478 0 0 1-28.802-15.174ZM194.389 105.954a1996.144 1996.144 0 0 1-3.706 20.352c-1.007 5.363-5.83 10.32-10.768 11.11a997.044 997.044 0 0 1-19.442 2.897c-5.825.809-10.117-3.592-9.634-9.587.546-6.778 1.172-15.145 1.734-23.465.461-6.818 6.192-12.359 12.508-12.248 8.026.14 15.65.205 21.409.218 5.251.013 8.971 4.653 7.899 10.723Zm-29.615-1.969a1779.19 1779.19 0 0 1-2.952 28.615 4332.119 4332.119 0 0 1 23.581-16.519 1224.91 1224.91 0 0 1-20.629-12.096ZM230.323 103.351l-5.061 17.463c-1.348 4.652-5.539 9.112-9.339 9.93-1.203.258-7.276 1.565-15.083 3.038-4.479.845-7.347-2.781-6.311-7.996 1.183-5.949 2.569-13.1 3.875-20.041 1.095-5.814 6.101-10.598 10.894-10.688 8.455-.159 14.964-.41 16.264-.46 3.913-.151 6.278 3.518 4.761 8.754Zm-22.236-.732a2429.589 2429.589 0 0 1-5.375 24.469 5662.461 5662.461 0 0 1 19.699-14.859 1098.41 1098.41 0 0 1-14.324-9.61Z" style="fill:#fff;fill-opacity:.48"/>
    <path d="M89.738 167.228c.46 8.267.863 16.325 1.149 22.606.267 5.83-5.129 11.884-12.002 13.562a2636.63 2636.63 0 0 1-26.589 6.337c-8.018 1.868-15.244-2.315-16.494-8.797l-5.029-26.062c-1.456-7.544 4.645-14.655 13.637-15.45a2464.81 2464.81 0 0 0 30.463-2.879c7.696-.779 14.491 3.966 14.865 10.683Zm-41.024 1.127 4.765 31.715c11.737-9.2 22.419-17.183 28.205-21.474-14.6-4.227-27.361-8.39-32.97-10.241ZM143.215 158.66a1294.35 1294.35 0 0 1-1.805 19.555c-.51 5.075-5.505 10.407-11.135 11.944a1810.084 1810.084 0 0 1-21.825 5.804c-6.582 1.707-11.79-1.784-11.956-7.34-.188-6.302-.462-14.234-.789-22.261-.263-6.454 5.448-12.632 12.656-13.488a1589.56 1589.56 0 0 0 24.414-3.095c6.132-.83 10.931 3.08 10.44 8.881Zm-32.473 1.778c.042 10.286-.01 19.726-.101 27.177a2541.379 2541.379 0 0 1 24.913-18.988 741.942 741.942 0 0 1-24.812-8.189ZM186.049 150.046c-.28 1.378-1.788 8.803-3.604 17.206-.976 4.52-5.442 9.291-9.992 10.695-8.568 2.643-16.249 4.885-17.666 5.299-5.29 1.543-8.976-1.396-8.416-6.271a1274.57 1274.57 0 0 0 2.055-19.264c.552-5.581 5.736-10.993 11.399-11.89a985.268 985.268 0 0 0 19.21-3.239c4.777-.858 8.049 2.366 7.014 7.464Zm-25.241 2.24a1244.897 1244.897 0 0 1-3.289 23.617l21.514-17.001a629.37 629.37 0 0 1-18.225-6.616ZM219.217 141.672l-4.489 15.491c-1.186 4.092-5.11 8.507-8.738 9.778a863.15 863.15 0 0 1-14.196 4.832c-4.177 1.382-6.805-1.13-5.809-5.553.306-1.359 1.873-8.316 3.726-17.012 1.046-4.909 5.638-9.715 10.032-10.631a618.13 618.13 0 0 0 14.955-3.309c3.665-.861 5.85 1.812 4.519 6.404Zm-19.431 2.521a1982.258 1982.258 0 0 1-5.09 20.961 2399.163 2399.163 0 0 0 18.273-15.475 610.427 610.427 0 0 1-13.183-5.486ZM91.858 214.71c.207 6.49.367 12.969.464 18.033.089 4.633-4.714 10.33-10.609 12.752l-22.649 9.303c-6.899 2.833-12.792.405-13.763-4.631l-3.985-20.651c-1.15-5.962 4.032-12.688 11.771-14.625a2819.516 2819.516 0 0 0 26.164-6.683c6.678-1.742 12.438 1.16 12.607 6.502Zm-35.312 6.302c.351 2.427 1.911 13.216 3.587 25.232 11.006-10.152 21.364-18.997 24.497-21.666a599.64 599.64 0 0 1-28.084-3.566ZM139.001 199.942c-1 8.192-1.912 14.643-2.092 15.915-.582 4.115-5.178 9.093-10.223 11.165l-19.317 7.935c-5.88 2.415-10.173.307-10.177-4.039a1367.18 1367.18 0 0 0-.144-17.783c-.076-5.141 4.983-10.98 11.344-12.73a1949.1 1949.1 0 0 0 21.548-6.064c5.511-1.587 9.632.925 9.061 5.601Zm-28.699 5.718c-.21 8.111-.5 15.829-.779 21.866 9.767-8.403 19.458-16.422 22.46-18.903a542.81 542.81 0 0 1-21.681-2.963ZM178.081 186.703a1091.856 1091.856 0 0 1-3.489 14.507c-.936 3.776-5.197 8.27-9.426 10.006l-16.324 6.706c-4.907 2.015-8.069.13-7.458-3.784.196-1.257 1.192-7.637 2.298-15.727.621-4.54 5.362-9.687 10.505-11.259 1.404-.429 9.01-2.754 17.51-5.484 4.473-1.437 7.369.808 6.384 5.035Zm-23.066 5.077a883.026 883.026 0 0 1-3.462 19.49l20.028-16.764c-1.328-.2-8.68-1.308-16.566-2.726ZM209.528 175.108l-3.977 13.722c-1.029 3.55-4.749 7.749-8.374 9.238l-13.731 5.64c-4.017 1.65-6.472-.093-5.523-3.813.293-1.151 1.798-7.052 3.572-14.405.993-4.118 5.306-8.779 9.412-10.183a935.682 935.682 0 0 0 14.131-4.955c3.588-1.291 5.641.784 4.49 4.756Zm-18.474 4.416a1601.438 1601.438 0 0 1-4.764 18.002 1451.2 1451.2 0 0 0 17.444-15.211c-.721-.157-8.067-1.751-12.68-2.791Z" style="fill:#fff;fill-opacity:.23"/>
</svg>